<svg width="320" height="320" viewBox="0 0 320 320" fill="none" xmlns="http://www.w3.org/2000/svg">
<path d="M260 0V40H230V60H246.055L290 89.2969V268.281L258.262 300.02L240 299.971V320H200V299.922H130V320H90V279.922H90.0391V259.922H220.049L241.738 259.971L250 251.719V110.703L233.945 100H86.0547L70 110.703V300.098H30V89.2969L73.9453 60H90V40H60V0H260ZM130 60H190V40H130V60Z" fill="url(#paint0_linear_452_414)"/>
<path d="M238.284 200L210 228.284L181.716 200L210 171.716L238.284 200Z" fill="#FF4800"/>
<path d="M138.284 200L110 228.284L81.7158 200L110 171.716L138.284 200Z" fill="#FF4800"/>
<defs>
<linearGradient id="paint0_linear_452_414" x1="-63.6959" y1="140.173" x2="306.449" y2="140.173" gradientUnits="userSpaceOnUse">
<stop stop-color="#FF4800"/>
<stop offset="1" stop-color="#FFFAE8"/>
</linearGradient>
</defs>
</svg>
