<svg width="110" height="38" viewBox="0 0 110 38" fill="none" xmlns="http://www.w3.org/2000/svg">
<path d="M10.1939 0L15.5407 4.83827L11.1965 9.67052L7.70209 6.50816H6.48579V24.5255L17.7767 30.6005L28.8436 24.541V6.50816H27.4994L24.302 9.59818L19.8024 4.91062L24.8839 0H35.3293V28.4044L17.8042 38L0 28.4199V0H10.1939ZM99.9477 0.578733V11.0502H93.4619V7.08689H88.4525V27.8627H103.514V0.998142H110V34.3709H81.9667V0.578733H99.9477ZM58.8922 4.8021L60.9 2.79549L65.4776 7.4064L58.8974 13.9817L54.5918 9.6886L49.1507 15.1375L58.8965 24.907L70.9385 12.826L75.5247 17.4274L58.8983 34.1091L39.9714 15.1358L54.5815 0.504669L58.8922 4.8021Z" fill="#320A38"/>
</svg>
