<svg width="85" height="44" viewBox="0 0 85 44" fill="none" xmlns="http://www.w3.org/2000/svg">
<path d="M80.2379 0.413696V5.92833H76.102V8.68565H78.3154L84.3739 12.7247V36.0219L80.001 40.3948H77.4806V43.1521H71.966V40.3948H62.3154V43.1521H56.8008V40.3948H55.4221V34.8802H77.7176L78.8593 33.7385V15.6759L76.6459 14.2003H56.2568L54.0434 15.6759V40.3948H48.5288V12.7247L54.5874 8.68565H56.8008V5.92833H52.6648V0.413696H80.2379ZM62.3154 8.68565H70.5873V5.92833H62.3154V8.68565Z" fill="#22120C"/>
<path d="M77.2441 27.9869L73.3447 31.8863L69.4452 27.9869L73.3447 24.0874L77.2441 27.9869Z" fill="#22120C"/>
<path d="M63.4575 27.9869L59.5581 31.8863L55.6586 27.9869L59.5581 24.0874L63.4575 27.9869Z" fill="#22120C"/>
<path d="M28.4994 1.14222L33.9701 12.0836L30.0639 21.1938L39.7747 30.9046L35.8753 34.8039L25.6529 24.5815H9.19638L6.7108 29.5527L10.8202 33.6621L6.92085 37.5615L0 30.6406L5.78712 19.0664H24.977L27.8921 12.2614L25.0901 6.65736H14.3857V1.14222H28.4994Z" fill="#22120C"/>
<path d="M16.9095 39.7623L13.0097 43.6621L9.10988 39.7623L13.0097 35.8625L16.9095 39.7623Z" fill="#22120C"/>
<path d="M11.3902 3.89979L7.49045 7.79958L3.59066 3.89979L7.49045 0L11.3902 3.89979Z" fill="#22120C"/>
</svg>
