<?xml version="1.0" encoding="UTF-8"?>
<svg id="Calque_1" data-name="Calque 1" xmlns="http://www.w3.org/2000/svg" viewBox="0 0 192.56 184.67">
  <defs>
    <style>
      .cls-1 {
        fill: none;
        stroke: #1d1d1b;
	stroke-width: 4;
        stroke-miterlimit: 10;
      }
    </style>
  </defs>
  <path class="cls-1" d="M156.85,140.6c11.44,0,20.71-9.27,20.71-20.71v-52.54c0-10.08-8.17-18.26-18.26-18.26H29.81c-11.44,0-20.71,9.27-20.71,20.71v50.08c0,11.44,9.27,20.71,20.71,20.71"/>
  <path class="cls-1" d="M135.46,166.33H51.74c-11.81,0-21.39-9.27-21.39-20.71v-33.8h126.49v33.8c0,11.44-9.58,20.71-21.39,20.71Z"/>
  <path class="cls-1" d="M32.08,49.13v-15.08c0-11.44,9.27-20.71,20.71-20.71h54.52c10.08,0,16.39,2.35,22.93,9.79l24.33,26"/>
  <line class="cls-1" x1="49.84" y1="121.88" x2="136.82" y2="121.88"/>
  <line class="cls-1" x1="49.84" y1="130.48" x2="136.82" y2="130.48"/>
  <line class="cls-1" x1="49.84" y1="139.07" x2="136.82" y2="139.07"/>
  <line class="cls-1" x1="49.84" y1="147.67" x2="136.82" y2="147.67"/>
  <line class="cls-1" x1="49.84" y1="156.27" x2="136.82" y2="156.27"/>
</svg>